{
	"asset":{
		"generator":"Khronos glTF Blender I/O v3.6.27",
		"version":"2.0"
	},
	"scene":0,
	"scenes":[
		{
			"name":"Scene",
			"nodes":[
				0,
				1,
				2,
				3,
				4
			]
		}
	],
	"nodes":[
		{
			"mesh":0,
			"name":"Cube.001",
			"rotation":[
				-1,
				0,
				0,
				7.549790126404332e-08
			],
			"translation":[
				-0.37068629264831543,
				0.4952583312988281,
				5.466514587402344
			]
		},
		{
			"mesh":1,
			"name":"Cube",
			"rotation":[
				0,
				-1,
				0,
				7.549790126404332e-08
			],
			"translation":[
				-6.600578308105469,
				5.256776809692383,
				5.458666801452637
			]
		},
		{
			"mesh":2,
			"name":"Cube.002",
			"rotation":[
				0,
				-1,
				0,
				7.549790126404332e-08
			],
			"translation":[
				6.4427618980407715,
				5.181174278259277,
				5.510453224182129
			]
		},
		{
			"mesh":3,
			"name":"Cube.003",
			"rotation":[
				-0.5,
				-0.49999988079071045,
				0.5,
				0.5000001192092896
			],
			"translation":[
				-0.010973930358886719,
				5.197527885437012,
				-0.9050681591033936
			]
		},
		{
			"mesh":4,
			"name":"Cube.004",
			"rotation":[
				0,
				-1,
				0,
				7.549790126404332e-08
			],
			"scale":[
				1,
				0.27292048931121826,
				1
			],
			"translation":[
				-0.07693910598754883,
				9.84371280670166,
				5.460020542144775
			]
		}
	],
	"meshes":[
		{
			"name":"Cube.002",
			"primitives":[
				{
					"attributes":{
						"POSITION":0,
						"NORMAL":1,
						"TEXCOORD_0":2
					},
					"indices":3
				}
			]
		},
		{
			"name":"Cube.003",
			"primitives":[
				{
					"attributes":{
						"POSITION":4,
						"NORMAL":5,
						"TEXCOORD_0":6
					},
					"indices":3
				}
			]
		},
		{
			"name":"Cube.004",
			"primitives":[
				{
					"attributes":{
						"POSITION":7,
						"NORMAL":8,
						"TEXCOORD_0":9
					},
					"indices":3
				}
			]
		},
		{
			"name":"Cube.005",
			"primitives":[
				{
					"attributes":{
						"POSITION":10,
						"NORMAL":11,
						"TEXCOORD_0":12
					},
					"indices":3
				}
			]
		},
		{
			"name":"Cube.006",
			"primitives":[
				{
					"attributes":{
						"POSITION":13,
						"NORMAL":14,
						"TEXCOORD_0":15
					},
					"indices":3
				}
			]
		}
	],
	"accessors":[
		{
			"bufferView":0,
			"componentType":5126,
			"count":24,
			"max":[
				6.502134323120117,
				9.5367431640625e-07,
				6.068035125732422
			],
			"min":[
				-6.502134323120117,
				-9.5367431640625e-07,
				-6.068035125732422
			],
			"type":"VEC3"
		},
		{
			"bufferView":1,
			"componentType":5126,
			"count":24,
			"type":"VEC3"
		},
		{
			"bufferView":2,
			"componentType":5126,
			"count":24,
			"type":"VEC2"
		},
		{
			"bufferView":3,
			"componentType":5123,
			"count":36,
			"type":"SCALAR"
		},
		{
			"bufferView":4,
			"componentType":5126,
			"count":24,
			"max":[
				0.27224230766296387,
				4.7615203857421875,
				6.075883865356445
			],
			"min":[
				-0.27224230766296387,
				-4.7615203857421875,
				-6.075883865356445
			],
			"type":"VEC3"
		},
		{
			"bufferView":5,
			"componentType":5126,
			"count":24,
			"type":"VEC3"
		},
		{
			"bufferView":6,
			"componentType":5126,
			"count":24,
			"type":"VEC2"
		},
		{
			"bufferView":7,
			"componentType":5126,
			"count":24,
			"max":[
				0.31131410598754883,
				4.685914993286133,
				6.024097442626953
			],
			"min":[
				-0.31131410598754883,
				-4.685914993286133,
				-6.024097442626953
			],
			"type":"VEC3"
		},
		{
			"bufferView":8,
			"componentType":5126,
			"count":24,
			"type":"VEC3"
		},
		{
			"bufferView":9,
			"componentType":5126,
			"count":24,
			"type":"VEC2"
		},
		{
			"bufferView":10,
			"componentType":5126,
			"count":24,
			"max":[
				4.702267646789551,
				0.39142465591430664,
				6.453734874725342
			],
			"min":[
				-4.702267646789551,
				-0.39142465591430664,
				-6.453734874725342
			],
			"type":"VEC3"
		},
		{
			"bufferView":11,
			"componentType":5126,
			"count":24,
			"type":"VEC3"
		},
		{
			"bufferView":12,
			"componentType":5126,
			"count":24,
			"type":"VEC2"
		},
		{
			"bufferView":13,
			"componentType":5126,
			"count":24,
			"max":[
				6.251396656036377,
				0.5808320045471191,
				6.077237606048584
			],
			"min":[
				-6.251396656036377,
				-0.5808320045471191,
				-6.077237606048584
			],
			"type":"VEC3"
		},
		{
			"bufferView":14,
			"componentType":5126,
			"count":24,
			"type":"VEC3"
		},
		{
			"bufferView":15,
			"componentType":5126,
			"count":24,
			"type":"VEC2"
		}
	],
	"bufferViews":[
		{
			"buffer":0,
			"byteLength":288,
			"byteOffset":0,
			"target":34962
		},
		{
			"buffer":0,
			"byteLength":288,
			"byteOffset":288,
			"target":34962
		},
		{
			"buffer":0,
			"byteLength":192,
			"byteOffset":576,
			"target":34962
		},
		{
			"buffer":0,
			"byteLength":72,
			"byteOffset":768,
			"target":34963
		},
		{
			"buffer":0,
			"byteLength":288,
			"byteOffset":840,
			"target":34962
		},
		{
			"buffer":0,
			"byteLength":288,
			"byteOffset":1128,
			"target":34962
		},
		{
			"buffer":0,
			"byteLength":192,
			"byteOffset":1416,
			"target":34962
		},
		{
			"buffer":0,
			"byteLength":288,
			"byteOffset":1608,
			"target":34962
		},
		{
			"buffer":0,
			"byteLength":288,
			"byteOffset":1896,
			"target":34962
		},
		{
			"buffer":0,
			"byteLength":192,
			"byteOffset":2184,
			"target":34962
		},
		{
			"buffer":0,
			"byteLength":288,
			"byteOffset":2376,
			"target":34962
		},
		{
			"buffer":0,
			"byteLength":288,
			"byteOffset":2664,
			"target":34962
		},
		{
			"buffer":0,
			"byteLength":192,
			"byteOffset":2952,
			"target":34962
		},
		{
			"buffer":0,
			"byteLength":288,
			"byteOffset":3144,
			"target":34962
		},
		{
			"buffer":0,
			"byteLength":288,
			"byteOffset":3432,
			"target":34962
		},
		{
			"buffer":0,
			"byteLength":192,
			"byteOffset":3720,
			"target":34962
		}
	],
	"buffers":[
		{
			"byteLength":3912,
			"uri":"data:application/octet-stream;base64,"
		}
	]
}
